ffmpeg started on 2016-12-07 at 03:56:22
Report written to "Output/x264/results/ffmpeg/sintelslow500k.log"
Command line:
Tools/ffmpeg/ffmpeg -benchmark -y -i Input/y4m/sintel.y4m -c:v libx264 -preset slow -b:v 500k -an Output/x264/encoded/sintelslow500k.mkv
ffmpeg version N-82227-gdb23fde Copyright (c) 2000-2016 the FFmpeg developers
  built with gcc 5.4.0 (Ubuntu 5.4.0-6ubuntu1~16.04.2) 20160609
  configuration: --prefix=/home/jaroslav/ffmpeg_build --pkg-config-flags=--static --extra-cflags=-I/home/jaroslav/ffmpeg_build/include --extra-ldflags=-L/home/jaroslav/ffmpeg_build/lib --bindir=/home/jaroslav/bin --enable-gpl --enable-libass --enable-libfdk-aac --enable-libfreetype --enable-libmp3lame --enable-libopus --enable-libtheora --enable-libvorbis --enable-libvpx --enable-libx264 --enable-libx265 --enable-nvenc --enable-libmfx --enable-libxvid --enable-libgsm --enable-libopencore-amrnb --enable-version3 --enable-nonfree
  libavutil      55. 35.100 / 55. 35.100
  libavcodec     57. 66.101 / 57. 66.101
  libavformat    57. 57.100 / 57. 57.100
  libavdevice    57.  2.100 / 57.  2.100
  libavfilter     6. 66.100 /  6. 66.100
  libswscale      4.  3.100 /  4.  3.100
  libswresample   2.  4.100 /  2.  4.100
  libpostproc    54.  2.100 / 54.  2.100
Input #0, yuv4mpegpipe, from 'Input/y4m/sintel.y4m':
  Duration: 00:00:20.83, start: 0.000000, bitrate: 2057307 kb/s
    Stream #0:0: Video: rawvideo (I420 / 0x30323449), yuv420p(progressive), 4096x1744, SAR 1:1 DAR 256:109, 24 fps, 24 tbr, 24 tbn, 24 tbc
[libx264 @ 0x34d2120] using SAR=1/1
[libx264 @ 0x34d2120] using cpu capabilities: MMX2 SSE2Fast SSSE3 SSE4.2 AVX FMA3 AVX2 LZCNT BMI2
[libx264 @ 0x34d2120] profile High, level 5.1
[libx264 @ 0x34d2120] 264 - core 148 - H.264/MPEG-4 AVC codec - Copyleft 2003-2016 - http://www.videolan.org/x264.html - options: cabac=1 ref=5 deblock=1:0:0 analyse=0x3:0x113 me=hex subme=8 psy=1 psy_rd=1.00:0.00 mixed_ref=1 me_range=16 chroma_me=1 trellis=2 8x8dct=1 cqm=0 deadzone=21,11 fast_pskip=1 chroma_qp_offset=-2 threads=6 lookahead_threads=1 sliced_threads=0 nr=0 decimate=1 interlaced=0 bluray_compat=0 constrained_intra=0 bframes=3 b_pyramid=2 b_adapt=1 b_bias=0 direct=3 weightb=1 open_gop=0 weightp=2 keyint=250 keyint_min=24 scenecut=40 intra_refresh=0 rc_lookahead=50 rc=abr mbtree=1 bitrate=500 ratetol=1.0 qcomp=0.60 qpmin=0 qpmax=69 qpstep=4 ip_ratio=1.40 aq=1:1.00
Output #0, matroska, to 'Output/x264/encoded/sintelslow500k.mkv':
  Metadata:
    encoder         : Lavf57.57.100
    Stream #0:0: Video: h264 (libx264) (H264 / 0x34363248), yuv420p, 4096x1744 [SAR 1:1 DAR 256:109], q=-1--1, 500 kb/s, 24 fps, 1k tbn, 24 tbc
    Metadata:
      encoder         : Lavc57.66.101 libx264
    Side data:
      cpb: bitrate max/min/avg: 0/0/500000 buffer size: 0 vbv_delay: -1
Stream mapping:
  Stream #0:0 -> #0:0 (rawvideo (native) -> h264 (libx264))
Press [q] to stop, [?] for help
frame=    9 fps=0.0 q=0.0 size=       0kB time=00:00:00.00 bitrate=N/A speed=   0x    frame=   16 fps= 14 q=0.0 size=       0kB time=00:00:00.00 bitrate=N/A speed=   0x    frame=   25 fps= 15 q=0.0 size=       0kB time=00:00:00.00 bitrate=N/A speed=   0x    frame=   34 fps= 15 q=0.0 size=       0kB time=00:00:00.00 bitrate=N/A speed=   0x    frame=   39 fps= 14 q=0.0 size=       0kB time=00:00:00.00 bitrate=N/A speed=   0x    frame=   48 fps= 15 q=0.0 size=       0kB time=00:00:00.00 bitrate=N/A speed=   0x    frame=   51 fps=7.6 q=0.0 size=       0kB time=00:00:00.00 bitrate=N/A speed=   0x    frame=   52 fps=5.7 q=0.0 size=       0kB time=00:00:00.00 bitrate=N/A speed=   0x    frame=   53 fps=4.3 q=0.0 size=       0kB time=00:00:00.00 bitrate=N/A speed=   0x    frame=   57 fps=3.7 q=0.0 size=       0kB time=00:00:00.00 bitrate=N/A speed=   0x    frame=   63 fps=4.0 q=51.0 size=       1kB time=00:00:00.00 bitrate=5872.0kbits/s speed=6.34e-05x    frame=   68 fps=4.1 q=62.0 size=       1kB time=00:00:00.20 bitrate=  28.1kbits/s speed=0.0128x    frame=   74 fps=4.3 q=67.0 size=       1kB time=00:00:00.45 bitrate=  12.8kbits/s speed=0.0269x    frame=   82 fps=4.6 q=69.0 size=       1kB time=00:00:00.79 bitrate=   7.4kbits/s speed=0.0447x    frame=   89 fps=4.9 q=69.0 size=       1kB time=00:00:01.08 bitrate=   5.4kbits/s speed=0.0591x    frame=   95 fps=5.0 q=69.0 size=       1kB time=00:00:01.33 bitrate=   4.4kbits/s speed=0.0707x    frame=  101 fps=5.2 q=69.0 size=       1kB time=00:00:01.58 bitrate=   3.7kbits/s speed=0.0815x    frame=  106 fps=5.3 q=69.0 size=       1kB time=00:00:01.79 bitrate=   3.3kbits/s speed=0.0899x    frame=  114 fps=5.5 q=69.0 size=       1kB time=00:00:02.12 bitrate=   2.8kbits/s speed=0.103x    frame=  120 fps=5.7 q=69.0 size=       1kB time=00:00:02.37 bitrate=   2.5kbits/s speed=0.112x    frame=  125 fps=5.7 q=69.0 size=       1kB time=00:00:02.58 bitrate=   2.3kbits/s speed=0.119x    frame=  132 fps=5.9 q=69.0 size=       1kB time=00:00:02.87 bitrate=   2.0kbits/s speed=0.129x    frame=  137 fps=6.0 q=69.0 size=       1kB time=00:00:03.08 bitrate=   1.9kbits/s speed=0.135x    frame=  142 fps=6.1 q=69.0 size=       1kB time=00:00:03.29 bitrate=   1.8kbits/s speed=0.141x    frame=  148 fps=6.2 q=69.0 size=       1kB time=00:00:03.54 bitrate=   1.7kbits/s speed=0.148x    frame=  152 fps=6.2 q=66.0 size=       1kB time=00:00:03.70 bitrate=   1.6kbits/s speed=0.152x    frame=  160 fps=6.4 q=69.0 size=     607kB time=00:00:04.04 bitrate=1229.4kbits/s speed=0.162x    frame=  168 fps=6.6 q=69.0 size=     607kB time=00:00:04.37 bitrate=1135.9kbits/s speed=0.171x    frame=  175 fps=6.7 q=69.0 size=     607kB time=00:00:04.66 bitrate=1064.8kbits/s speed=0.179x    frame=  182 fps=6.8 q=69.0 size=     607kB time=00:00:04.95 bitrate=1002.3kbits/s speed=0.186x    frame=  189 fps=6.9 q=69.0 size=     607kB time=00:00:05.25 bitrate= 946.6kbits/s speed=0.192x    frame=  193 fps=6.9 q=69.0 size=     607kB time=00:00:05.41 bitrate= 917.4kbits/s speed=0.195x    frame=  200 fps=7.0 q=69.0 size=     607kB time=00:00:05.70 bitrate= 870.7kbits/s speed= 0.2x    frame=  206 fps=7.1 q=69.0 size=     607kB time=00:00:05.95 bitrate= 834.1kbits/s speed=0.205x    frame=  212 fps=7.2 q=66.0 size=     607kB time=00:00:06.20 bitrate= 800.5kbits/s speed=0.21x    frame=  221 fps=7.3 q=69.0 size=     966kB time=00:00:06.58 bitrate=1202.1kbits/s speed=0.218x    frame=  227 fps=7.4 q=69.0 size=     966kB time=00:00:06.83 bitrate=1158.1kbits/s speed=0.223x    frame=  233 fps=7.5 q=69.0 size=     966kB time=00:00:07.08 bitrate=1117.2kbits/s speed=0.227x    frame=  239 fps=7.5 q=66.0 size=     966kB time=00:00:07.33 bitrate=1079.1kbits/s speed=0.231x    frame=  248 fps=7.7 q=69.0 size=    1115kB time=00:00:07.70 bitrate=1184.5kbits/s speed=0.239x    frame=  255 fps=7.8 q=69.0 size=    1115kB time=00:00:08.00 bitrate=1141.3kbits/s speed=0.244x    frame=  262 fps=7.8 q=69.0 size=    1115kB time=00:00:08.29 bitrate=1101.1kbits/s speed=0.248x    frame=  269 fps=7.9 q=69.0 size=    1115kB time=00:00:08.58 bitrate=1063.8kbits/s speed=0.253x    frame=  277 fps=8.0 q=69.0 size=    1115kB time=00:00:08.91 bitrate=1024.0kbits/s speed=0.259x    frame=  287 fps=8.2 q=69.0 size=    1115kB time=00:00:09.33 bitrate= 978.3kbits/s speed=0.267x    frame=  294 fps=8.3 q=69.0 size=    1115kB time=00:00:09.62 bitrate= 948.6kbits/s speed=0.271x    frame=  302 fps=8.4 q=69.0 size=    1115kB time=00:00:09.95 bitrate= 916.9kbits/s speed=0.276x    frame=  308 fps=8.4 q=69.0 size=    1115kB time=00:00:10.20 bitrate= 894.5kbits/s speed=0.279x    frame=  317 fps=8.5 q=69.0 size=    1115kB time=00:00:10.58 bitrate= 862.8kbits/s speed=0.285x    frame=  322 fps=8.4 q=69.0 size=    1115kB time=00:00:10.79 bitrate= 846.1kbits/s speed=0.282x    frame=  331 fps=8.5 q=69.0 size=    1371kB time=00:00:11.16 bitrate=1005.7kbits/s speed=0.288x    frame=  342 fps=8.7 q=69.0 size=    1371kB time=00:00:11.62 bitrate= 966.1kbits/s speed=0.296x    frame=  351 fps=8.8 q=69.0 size=    1371kB time=00:00:12.00 bitrate= 935.9kbits/s speed=0.301x    frame=  363 fps=8.9 q=69.0 size=    1371kB time=00:00:12.50 bitrate= 898.4kbits/s speed=0.308x    frame=  374 fps=9.1 q=69.0 size=    1371kB time=00:00:12.95 bitrate= 866.7kbits/s speed=0.315x    frame=  382 fps=9.2 q=69.0 size=    1371kB time=00:00:13.29 bitrate= 844.9kbits/s speed=0.319x    frame=  391 fps=9.2 q=69.0 size=    1371kB time=00:00:13.66 bitrate= 821.7kbits/s speed=0.323x    frame=  400 fps=9.3 q=69.0 size=    1371kB time=00:00:14.04 bitrate= 799.8kbits/s speed=0.328x    frame=  407 fps=9.4 q=69.0 size=    1371kB time=00:00:14.33 bitrate= 783.5kbits/s speed=0.331x    frame=  415 fps=9.4 q=69.0 size=    1371kB time=00:00:14.66 bitrate= 765.7kbits/s speed=0.333x    frame=  427 fps=9.6 q=69.0 size=    1487kB time=00:00:15.16 bitrate= 803.2kbits/s speed=0.34x    frame=  435 fps=9.6 q=69.0 size=    1487kB time=00:00:15.50 bitrate= 785.9kbits/s speed=0.344x    frame=  445 fps=9.7 q=69.0 size=    1487kB time=00:00:15.91 bitrate= 765.3kbits/s speed=0.347x    frame=  455 fps=9.8 q=69.0 size=    1487kB time=00:00:16.33 bitrate= 745.8kbits/s speed=0.352x    frame=  464 fps=9.9 q=69.0 size=    1487kB time=00:00:16.70 bitrate= 729.1kbits/s speed=0.356x    frame=  473 fps= 10 q=69.0 size=    1487kB time=00:00:17.08 bitrate= 713.1kbits/s speed=0.36x    frame=  479 fps= 10 q=69.0 size=    1585kB time=00:00:17.33 bitrate= 749.1kbits/s speed=0.361x    frame=  489 fps= 10 q=69.0 size=    1585kB time=00:00:17.75 bitrate= 731.5kbits/s speed=0.366x    frame=  499 fps= 10 q=69.0 size=    1585kB time=00:00:18.16 bitrate= 714.7kbits/s speed=0.37x    frame=  500 fps=9.8 q=-1.0 Lsize=    1702kB time=00:00:20.70 bitrate= 673.1kbits/s speed=0.407x    
video:1697kB audio:0kB subtitle:0kB other streams:0kB global headers:0kB muxing overhead: 0.260369%
bench: utime=114.724s
bench: maxrss=1814728kB
[libx264 @ 0x34d2120] frame I:8     Avg QP:49.84  size:  4108
[libx264 @ 0x34d2120] frame P:269   Avg QP:50.97  size:  5998
[libx264 @ 0x34d2120] frame B:223   Avg QP:50.91  size:   407
[libx264 @ 0x34d2120] consecutive B-frames: 37.0%  8.4%  6.6% 48.0%
[libx264 @ 0x34d2120] mb I  I16..4: 46.5% 53.5%  0.0%
[libx264 @ 0x34d2120] mb P  I16..4: 11.4%  1.5%  0.0%  P16..4: 10.2%  0.2%  2.6%  0.0%  0.0%    skip:74.2%
[libx264 @ 0x34d2120] mb B  I16..4:  0.0%  0.0%  0.0%  B16..8:  0.9%  0.0%  0.0%  direct: 0.0%  skip:99.0%  L0:46.3% L1:52.2% BI: 1.4%
[libx264 @ 0x34d2120] final ratefactor: 65.72
[libx264 @ 0x34d2120] 8x8 transform intra:19.8% inter:100.0%
[libx264 @ 0x34d2120] direct mvs  spatial:98.7% temporal:1.3%
[libx264 @ 0x34d2120] coded y,uvDC,uvAC intra: 0.2% 0.9% 0.0% inter: 0.0% 0.0% 0.0%
[libx264 @ 0x34d2120] i16 v,h,dc,p: 93%  6%  1%  0%
[libx264 @ 0x34d2120] i8 v,h,dc,ddl,ddr,vr,hd,vl,hu:  9%  2% 89%  0%  0%  0%  0%  0%  0%
[libx264 @ 0x34d2120] i4 v,h,dc,ddl,ddr,vr,hd,vl,hu: 40%  0% 50%  4%  0%  0%  2%  2%  2%
[libx264 @ 0x34d2120] i8c dc,h,v,p: 100%  0%  0%  0%
[libx264 @ 0x34d2120] Weighted P-Frames: Y:1.1% UV:0.7%
[libx264 @ 0x34d2120] ref P L0: 46.1%  0.2% 23.1% 10.9% 10.8%  8.9%
[libx264 @ 0x34d2120] ref B L0: 84.4%  9.5%  5.7%  0.4%
[libx264 @ 0x34d2120] ref B L1: 92.5%  7.5%
[libx264 @ 0x34d2120] kb/s:667.10
